# Blender v2.74 (sub 0) OBJ File: 'bush.blend'
# www.blender.org
mtllib bush.mtl
o Icosphere
v -0.000000 -0.475864 0.000000
v -0.355003 -0.328785 0.758177
v -0.621542 -0.330430 -0.276415
v -0.015808 -0.329812 -0.897218
v -0.650099 0.160399 0.449787
v 0.377076 -0.330933 0.731808
v 0.614786 -0.329256 -0.311404
v 0.687839 0.000000 0.309013
v 0.687839 0.000000 -0.309013
v -0.000000 0.000000 1.000000
v 0.425108 0.000000 0.809017
v -0.425108 0.000000 0.809017
v -0.425108 0.000000 -0.809017
v -0.687839 0.000000 -0.309013
v 0.425108 0.000000 -0.809017
v -0.000000 0.000000 -1.000000
v 0.350812 0.372360 0.729204
v -0.190116 0.348863 0.809012
v -0.612403 0.347068 -0.298073
v 0.006789 0.345093 -0.890581
v 0.625741 0.315965 -0.309776
v 0.167912 0.542237 0.490887
v -0.307609 0.564467 0.309011
v -0.307609 0.564467 -0.309011
v 0.117494 0.564467 -0.499995
vn 0.004000 -0.981300 0.192300
vn -0.255600 -0.964400 0.067400
vn -0.158800 -0.974900 -0.155900
vn 0.150800 -0.975300 -0.161400
vn 0.823900 -0.535000 0.186900
vn 0.026700 -0.610800 0.791300
vn -0.890600 -0.392200 0.230100
vn -0.585800 -0.574000 -0.572200
vn 0.554100 -0.581400 -0.595900
vn 0.861400 -0.230600 0.452600
vn -0.399500 -0.222700 0.889300
vn -0.978300 -0.187600 0.088300
vn -0.396200 -0.255800 -0.881800
vn 0.869200 -0.189500 -0.456700
vn -0.609100 0.666200 0.430400
vn 0.439900 0.898000 -0.002200
vn 0.524300 0.670400 -0.525100
vn 0.009900 0.999700 0.021900
vn -0.196400 0.877600 -0.437200
vn -0.505000 0.681300 -0.530000
vn 0.046700 0.998900 0.000000
vn -0.580700 0.814100 0.000000
vn -0.733700 0.667000 0.129500
vn -0.117100 0.901700 0.416300
vn 0.046000 0.829800 0.556200
vn 0.592700 0.797400 0.113500
vn 0.872300 0.170300 -0.458400
vn 0.579400 0.563100 -0.589200
vn -0.392800 0.285000 -0.874400
vn -0.567400 0.569500 -0.594800
vn -0.977200 0.212300 0.003700
vn -0.657500 0.442900 0.609600
vn -0.395000 0.266100 0.879300
vn 0.102500 0.520100 0.847900
vn 0.853300 0.266300 0.448300
vn 0.824800 0.532900 0.189300
vn 0.394500 0.270700 -0.878100
vn 0.392100 -0.290800 -0.872800
vn -0.866800 0.202800 -0.455500
vn -0.863900 -0.218100 -0.454000
vn -0.866800 -0.251400 0.430600
vn 0.394900 0.267200 0.879000
vn 0.395400 -0.262700 0.880100
vn 0.981200 0.192800 0.000000
vn 0.976300 -0.216600 0.000000
vn 0.259000 -0.964200 0.057500
usemtl bush_leaves
s off
f 1//1 6//1 2//1
f 1//2 2//2 3//2
f 1//3 3//3 4//3
f 1//4 4//4 7//4
f 6//5 7//5 8//5
f 2//6 6//6 10//6
f 3//7 2//7 5//7
f 4//8 3//8 13//8
f 7//9 4//9 15//9
f 6//10 8//10 11//10
f 2//11 10//11 12//11
f 3//12 5//12 14//12
f 4//13 13//13 16//13
f 7//14 15//14 9//14
f 5//15 18//15 23//15
f 22//16 21//16 25//16
f 21//17 20//17 25//17
f 25//18 24//18 22//18
f 25//19 20//19 24//19
f 20//20 19//20 24//20
f 24//21 23//21 22//21
f 24//22 19//22 23//22
f 19//23 5//23 23//23
f 23//24 18//24 22//24
f 18//25 17//25 22//25
f 17//26 21//26 22//26
f 9//27 15//27 21//27
f 15//28 20//28 21//28
f 16//29 13//29 20//29
f 13//30 19//30 20//30
f 14//31 5//31 19//31
f 12//32 18//32 5//32
f 12//33 10//33 18//33
f 10//34 17//34 18//34
f 11//35 8//35 17//35
f 8//36 21//36 17//36
f 15//37 16//37 20//37
f 15//38 4//38 16//38
f 13//39 14//39 19//39
f 13//40 3//40 14//40
f 5//41 2//41 12//41
f 10//42 11//42 17//42
f 10//43 6//43 11//43
f 8//44 9//44 21//44
f 8//45 7//45 9//45
f 6//46 1//46 7//46
